<svg width="60" height="60" viewBox="0 0 60 60" fill="none" xmlns="http://www.w3.org/2000/svg">
<rect width="60" height="60" rx="30" fill="#457EFF" fill-opacity="0.14"/>
<path d="M30.0002 17.5C36.904 17.5 42.5002 23.0963 42.5002 30C42.5002 36.9037 36.904 42.5 30.0002 42.5C23.0965 42.5 17.5002 36.9037 17.5002 30C17.5002 23.0963 23.0965 17.5 30.0002 17.5ZM30.0002 20C27.3481 20 24.8045 21.0536 22.9292 22.9289C21.0538 24.8043 20.0002 27.3478 20.0002 30C20.0002 32.6522 21.0538 35.1957 22.9292 37.0711C24.8045 38.9464 27.3481 40 30.0002 40C32.6524 40 35.1959 38.9464 37.0713 37.0711C38.9467 35.1957 40.0002 32.6522 40.0002 30C40.0002 27.3478 38.9467 24.8043 37.0713 22.9289C35.1959 21.0536 32.6524 20 30.0002 20ZM30.0002 22.5C30.3064 22.5 30.6019 22.6124 30.8307 22.8159C31.0595 23.0193 31.2057 23.2997 31.2415 23.6037L31.2502 23.75V29.4825L34.634 32.8663C34.8582 33.0912 34.9883 33.393 34.998 33.7105C35.0077 34.0279 34.8962 34.3371 34.6862 34.5753C34.4761 34.8136 34.1833 34.9629 33.8672 34.993C33.551 35.0231 33.2352 34.9318 32.984 34.7375L32.8665 34.6337L29.1165 30.8837C28.9222 30.6893 28.7974 30.4363 28.7615 30.1637L28.7502 30V23.75C28.7502 23.4185 28.8819 23.1005 29.1164 22.8661C29.3508 22.6317 29.6687 22.5 30.0002 22.5Z" fill="#457EFF"/>
</svg>
