<svg width="61" height="60" viewBox="0 0 61 60" fill="none" xmlns="http://www.w3.org/2000/svg">
<rect x="0.875" width="60" height="60" rx="30" fill="#FFCE31"/>
<path d="M19.625 15C18.6304 15 17.6766 15.4515 16.9733 16.2553C16.2701 17.059 15.875 18.1491 15.875 19.2857V32.1429C15.875 33.2795 16.2701 34.3696 16.9733 35.1733C17.6766 35.977 18.6304 36.4286 19.625 36.4286H34.625C35.6196 36.4286 36.5734 35.977 37.2766 35.1733C37.9799 34.3696 38.375 33.2795 38.375 32.1429V19.2857C38.375 18.1491 37.9799 17.059 37.2766 16.2553C36.5734 15.4515 35.6196 15 34.625 15H19.625ZM20.1275 38.5714C20.4566 39.2229 20.93 39.7639 21.5001 40.1401C22.0701 40.5162 22.7168 40.7143 23.375 40.7143H34.625C36.6141 40.7143 38.5218 39.8112 39.9283 38.2038C41.3348 36.5963 42.125 34.4161 42.125 32.1429V23.5714C42.125 22.8191 41.9517 22.0801 41.6226 21.4286C41.2934 20.7771 40.8201 20.2361 40.25 19.86V32.1429C40.25 33.8478 39.6574 35.483 38.6025 36.6885C37.5476 37.8941 36.1168 38.5714 34.625 38.5714H20.1275ZM23.8775 42.8571C24.2066 43.5086 24.68 44.0496 25.2501 44.4258C25.8201 44.8019 26.4668 45 27.125 45H34.625C37.6087 45 40.4702 43.6454 42.58 41.2342C44.6897 38.823 45.875 35.5528 45.875 32.1429V27.8571C45.875 27.1049 45.7017 26.3658 45.3726 25.7143C45.0434 25.0629 44.5701 24.5219 44 24.1457V32.1429C44 34.9845 43.0123 37.7097 41.2541 39.719C39.496 41.7283 37.1114 42.8571 34.625 42.8571H23.8775Z" fill="#EF9E00"/>
</svg>
