<svg width="61" height="60" viewBox="0 0 61 60" fill="none" xmlns="http://www.w3.org/2000/svg">
<rect x="0.375" width="60" height="60" rx="30" fill="#FFCE31"/>
<path d="M30.3751 15C30.3751 15 37.2982 18.1385 37.2982 31.1538C37.2982 34.9846 35.6982 39.7231 34.8366 41.9231H25.9135C25.052 39.7231 23.452 34.9846 23.452 31.1538C23.452 18.1385 30.3751 15 30.3751 15ZM33.452 28.0769C33.452 26.3846 32.0674 25 30.3751 25C28.6828 25 27.2982 26.3846 27.2982 28.0769C27.2982 29.7692 28.6828 31.1538 30.3751 31.1538C32.0674 31.1538 33.452 29.7692 33.452 28.0769ZM23.7443 42.7231C23.0058 40.8308 21.4058 36.3077 21.1751 32.1538L19.4366 33.3077C18.5751 33.8923 18.0674 34.8462 18.0674 35.8769V45L23.7443 42.7231ZM42.6828 45V35.8769C42.6828 34.8462 42.1751 33.8923 41.3135 33.3231L39.5751 32.1692C39.3443 36.3077 37.7289 40.8462 37.0058 42.7385L42.6828 45Z" fill="#EF9E00"/>
</svg>
