<svg width="58" height="14" viewBox="0 0 58 14" fill="none" xmlns="http://www.w3.org/2000/svg">
<path d="M0.652723 13.5643C0.375696 13.5643 0.151123 13.3397 0.151123 13.0627V0.601208C0.151123 0.376162 0.333559 0.193726 0.558606 0.193726V0.193726C1.68384 0.193726 2.59602 1.10591 2.59602 2.23114V11.1526C2.59602 11.4296 2.8206 11.6542 3.09762 11.6542H8.01566C8.29269 11.6542 8.51726 11.8788 8.51726 12.1558V13.0627C8.51726 13.3397 8.29269 13.5643 8.01566 13.5643H0.652723Z" fill="#334158"/>
<path d="M14.095 13.7935C13.1781 13.7935 12.3504 13.5834 11.6119 13.1631C10.886 12.7429 10.3066 12.1635 9.87369 11.425C9.45347 10.6737 9.24336 9.80778 9.24336 8.82727C9.24336 7.84677 9.45984 6.98723 9.89279 6.24867C10.3257 5.49737 10.9051 4.91162 11.631 4.4914C12.3695 4.07118 13.1972 3.86107 14.1141 3.86107C15.0182 3.86107 15.8331 4.07118 16.559 4.4914C17.2975 4.91162 17.8769 5.49737 18.2971 6.24867C18.7301 6.98723 18.9466 7.84677 18.9466 8.82727C18.9466 9.80778 18.7301 10.6737 18.2971 11.425C17.8769 12.1635 17.2975 12.7429 16.559 13.1631C15.8204 13.5834 14.9991 13.7935 14.095 13.7935ZM14.095 11.6733C14.7316 11.6733 15.2856 11.4377 15.7567 10.9666C16.2279 10.4827 16.4634 9.76958 16.4634 8.82727C16.4634 7.88497 16.2279 7.17824 15.7567 6.70709C15.2856 6.2232 14.738 5.98126 14.1141 5.98126C13.4646 5.98126 12.9043 6.2232 12.4332 6.70709C11.9748 7.17824 11.7456 7.88497 11.7456 8.82727C11.7456 9.76958 11.9748 10.4827 12.4332 10.9666C12.9043 11.4377 13.4583 11.6733 14.095 11.6733Z" fill="#334158"/>
<path d="M25.1148 13.7935C24.147 13.7935 23.2939 13.5834 22.5553 13.1631C21.8167 12.7429 21.231 12.1572 20.798 11.4059C20.3778 10.6546 20.1677 9.79504 20.1677 8.82727C20.1677 7.8595 20.3778 6.99997 20.798 6.24867C21.231 5.49737 21.8167 4.91162 22.5553 4.4914C23.2939 4.07118 24.147 3.86107 25.1148 3.86107C26.3245 3.86107 27.3432 4.17942 28.1709 4.81611C28.8442 5.32369 29.3195 5.99138 29.5968 6.81917C29.6978 7.1206 29.4582 7.41382 29.1403 7.41382H27.5589C27.3336 7.41382 27.1425 7.25986 27.0432 7.05763C26.9001 6.7664 26.6903 6.52858 26.4136 6.34417C26.0444 6.07676 25.605 5.94306 25.0957 5.94306C24.4208 5.94306 23.8478 6.19773 23.3766 6.70709C22.9055 7.21644 22.6699 7.92317 22.6699 8.82727C22.6699 9.73138 22.9055 10.4381 23.3766 10.9475C23.8478 11.4568 24.4208 11.7115 25.0957 11.7115C25.605 11.7115 26.0444 11.5841 26.4136 11.3295C26.6919 11.144 26.9025 10.9011 27.0457 10.6008C27.1432 10.3963 27.3351 10.2407 27.5617 10.2407H29.1358C29.4551 10.2407 29.6949 10.5365 29.5896 10.838C29.3114 11.6351 28.8385 12.2956 28.1709 12.8193C27.3432 13.4688 26.3245 13.7935 25.1148 13.7935Z" fill="#334158"/>
<path d="M35.8542 13.7935C34.9374 13.7935 34.1097 13.5834 33.3711 13.1631C32.6453 12.7429 32.0659 12.1635 31.633 11.425C31.2128 10.6737 31.0027 9.80778 31.0027 8.82727C31.0027 7.84677 31.2191 6.98723 31.6521 6.24867C32.085 5.49737 32.6644 4.91162 33.3902 4.4914C34.1288 4.07118 34.9565 3.86107 35.8733 3.86107C36.7775 3.86107 37.5924 4.07118 38.3182 4.4914C39.0568 4.91162 39.6362 5.49737 40.0564 6.24867C40.4894 6.98723 40.7058 7.84677 40.7058 8.82727C40.7058 9.80778 40.4894 10.6737 40.0564 11.425C39.6362 12.1635 39.0568 12.7429 38.3182 13.1631C37.5797 13.5834 36.7584 13.7935 35.8542 13.7935ZM35.8542 11.6733C36.4909 11.6733 37.0449 11.4377 37.516 10.9666C37.9872 10.4827 38.2227 9.76958 38.2227 8.82727C38.2227 7.88497 37.9872 7.17824 37.516 6.70709C37.0449 6.2232 36.4973 5.98126 35.8733 5.98126C35.2239 5.98126 34.6636 6.2232 34.1925 6.70709C33.7341 7.17824 33.5049 7.88497 33.5049 8.82727C33.5049 9.76958 33.7341 10.4827 34.1925 10.9666C34.6636 11.4377 35.2176 11.6733 35.8542 11.6733Z" fill="#334158"/>
<path d="M47.3235 13.7935C46.343 13.7935 45.458 13.6025 44.6685 13.2204C43.879 12.8257 43.2487 12.2336 42.7775 11.4441C42.3191 10.6546 42.0899 9.65497 42.0899 8.44526V0.695327C42.0899 0.4183 42.3145 0.193726 42.5915 0.193726H44.0332C44.3102 0.193726 44.5348 0.4183 44.5348 0.695327V8.46436C44.5348 9.50853 44.7831 10.2853 45.2797 10.7947C45.7891 11.304 46.4894 11.5587 47.3808 11.5587C48.2594 11.5587 48.9534 11.304 49.4628 10.7947C49.9721 10.2853 50.2268 9.50853 50.2268 8.46436V0.695327C50.2268 0.4183 50.4514 0.193726 50.7284 0.193726H52.1701C52.4471 0.193726 52.6717 0.4183 52.6717 0.695327V8.44526C52.6717 9.65497 52.4298 10.6546 51.9459 11.4441C51.462 12.2336 50.8126 12.8257 49.9976 13.2204C49.1954 13.6025 48.304 13.7935 47.3235 13.7935Z" fill="#334158"/>
<path d="M55.6691 13.5643C55.3921 13.5643 55.1675 13.3397 55.1675 13.0627V0.601208C55.1675 0.376161 55.3499 0.193726 55.575 0.193726V0.193726C56.7002 0.193726 57.6124 1.10591 57.6124 2.23114V13.0627C57.6124 13.3397 57.3878 13.5643 57.1108 13.5643H55.6691Z" fill="#334158"/>
</svg>
