<svg width="25" height="25" viewBox="0 0 25 25" fill="none" xmlns="http://www.w3.org/2000/svg">
<path d="M21.8243 19.0531C21.1815 18.48 20.6186 17.823 20.151 17.0998C19.6405 16.1015 19.3345 15.0113 19.251 13.8931V10.5998C19.2554 8.84351 18.6183 7.14609 17.4595 5.82642C16.3006 4.50675 14.6998 3.65568 12.9577 3.43311V2.57311C12.9577 2.33706 12.8639 2.11069 12.697 1.94378C12.5301 1.77687 12.3037 1.68311 12.0677 1.68311C11.8316 1.68311 11.6052 1.77687 11.4383 1.94378C11.2714 2.11069 11.1777 2.33706 11.1777 2.57311V3.44644C9.45116 3.68506 7.86964 4.54128 6.72601 5.85651C5.58238 7.17174 4.95415 8.85687 4.95766 10.5998V13.8931C4.87416 15.0113 4.56818 16.1015 4.05766 17.0998C3.59825 17.8213 3.04446 18.4783 2.41099 19.0531C2.33988 19.1156 2.28289 19.1925 2.2438 19.2787C2.20472 19.3649 2.18445 19.4585 2.18433 19.5531V20.4598C2.18433 20.6366 2.25456 20.8062 2.37959 20.9312C2.50461 21.0562 2.67418 21.1264 2.85099 21.1264H21.3843C21.5611 21.1264 21.7307 21.0562 21.8557 20.9312C21.9808 20.8062 22.051 20.6366 22.051 20.4598V19.5531C22.0509 19.4585 22.0306 19.3649 21.9915 19.2787C21.9524 19.1925 21.8954 19.1156 21.8243 19.0531ZM3.57099 19.7931C4.19127 19.1939 4.73739 18.5224 5.19766 17.7931C5.84073 16.5874 6.21595 15.2571 6.29766 13.8931V10.5998C6.27122 9.81846 6.40228 9.03982 6.68302 8.31022C6.96377 7.58061 7.38847 6.91496 7.93182 6.35291C8.47518 5.79085 9.12609 5.34388 9.84578 5.03862C10.5655 4.73336 11.3392 4.57604 12.121 4.57604C12.9027 4.57604 13.6765 4.73336 14.3962 5.03862C15.1159 5.34388 15.7668 5.79085 16.3102 6.35291C16.8535 6.91496 17.2782 7.58061 17.559 8.31022C17.8397 9.03982 17.9708 9.81846 17.9443 10.5998V13.8931C18.026 15.2571 18.4013 16.5874 19.0443 17.7931C19.5046 18.5224 20.0507 19.1939 20.671 19.7931H3.57099Z" fill="#424242"/>
<path d="M12.1512 23.3135C12.5711 23.3038 12.9741 23.1459 13.2889 22.8677C13.6037 22.5896 13.8099 22.209 13.8712 21.7935H10.3645C10.4275 22.2203 10.6434 22.6098 10.972 22.8894C11.3007 23.169 11.7197 23.3197 12.1512 23.3135Z" fill="#424242"/>
<circle cx="18.6077" cy="5.93701" r="3.5" fill="#457EFF" stroke="white"/>
</svg>
