<svg width="61" height="50" viewBox="0 0 61 50" fill="none" xmlns="http://www.w3.org/2000/svg">
<path d="M24.5852 49.2615L0.500001 25.1232L24.5852 0.984918C24.8027 0.700123 25.0791 0.465249 25.3956 0.296197C25.712 0.127145 26.0613 0.0278627 26.4196 0.00506961C26.7779 -0.0177235 27.1369 0.0365066 27.4724 0.164087C27.8079 0.291667 28.1119 0.489619 28.364 0.744542C28.616 0.999466 28.8102 1.30541 28.9334 1.64166C29.0565 1.97791 29.1058 2.33662 29.0778 2.6935C29.0498 3.05038 28.9453 3.3971 28.7712 3.71019C28.5971 4.02328 28.3576 4.29542 28.0689 4.50821L10.0489 22.6244L57.9937 22.6244C58.6584 22.6244 59.2959 22.8877 59.7659 23.3563C60.2359 23.8249 60.5 24.4605 60.5 25.1232C60.5 25.7859 60.2359 26.4215 59.7659 26.8901C59.2959 27.3587 58.6584 27.622 57.9937 27.622L10.0489 27.622L28.0689 45.7382C28.5375 46.2087 28.7995 46.8456 28.7971 47.5086C28.7948 48.1717 28.5283 48.8067 28.0564 49.274C27.5845 49.7412 26.9457 50.0023 26.2806 50C25.6155 49.9976 24.9786 49.732 24.51 49.2615L24.5852 49.2615Z" fill="#F8F8F8"/>
</svg>
