<svg width="60" height="50" viewBox="0 0 60 50" fill="none" xmlns="http://www.w3.org/2000/svg">
<path d="M35.9148 49.2615L60 25.1232L35.9148 0.984918C35.6973 0.700123 35.4209 0.465249 35.1044 0.296197C34.788 0.127145 34.4387 0.0278627 34.0804 0.00506961C33.7221 -0.0177235 33.3631 0.0365065 33.0276 0.164087C32.6921 0.291667 32.3881 0.489618 32.136 0.744542C31.884 0.999465 31.6898 1.30541 31.5666 1.64166C31.4435 1.97791 31.3942 2.33662 31.4222 2.6935C31.4502 3.05038 31.5547 3.3971 31.7288 3.71019C31.9029 4.02328 32.1424 4.29542 32.4311 4.50821L50.4511 22.6244L2.50627 22.6244C1.84157 22.6244 1.20409 22.8877 0.734076 23.3563C0.26406 23.8249 2.7455e-06 24.4605 2.71653e-06 25.1232C2.68756e-06 25.7859 0.26406 26.4215 0.734076 26.8901C1.20409 27.3587 1.84157 27.622 2.50627 27.622L50.4511 27.622L32.4311 45.7382C31.9625 46.2087 31.7005 46.8456 31.7029 47.5086C31.7052 48.1717 31.9717 48.8067 32.4436 49.274C32.9155 49.7412 33.5543 50.0023 34.2194 50C34.8845 49.9976 35.5214 49.732 35.99 49.2615L35.9148 49.2615Z" fill="#F8F8F8"/>
</svg>
