<svg width="323" height="56" viewBox="0 0 323 56" fill="none" xmlns="http://www.w3.org/2000/svg">
<path d="M22.3789 0.450053C17.681 0.450053 14.2972 0.783386 12.1038 1.45005C9.90696 2.11672 8.94733 2.88338 8.11475 4.31671C7.62657 5.15004 7.25876 6.38339 6.97455 7.95005C8.60627 8.18339 10.1042 8.45005 11.4818 8.88338C14.8255 9.88338 17.5573 11.8834 19.2058 14.65C20.8542 11.8834 23.5793 9.88338 26.923 8.88338C29.9089 7.98338 33.4198 7.61672 37.7665 7.55005C37.4991 6.15005 37.1647 5.08338 36.6966 4.31671C35.8606 2.88338 34.891 2.11672 32.6841 1.45005C30.4773 0.783386 27.0868 0.450053 22.3789 0.450053ZM61.0052 0.450053C56.2906 0.450053 52.9134 0.783386 50.74 1.45005C48.5332 2.11672 47.5635 2.88338 46.7276 4.31671C46.2595 5.11671 45.8917 6.25005 45.6242 7.75005C48.132 7.95005 50.3054 8.28338 52.2447 8.88338C55.5884 9.88338 58.3302 11.85 59.9686 14.65C61.607 11.85 64.3154 9.88338 67.6925 8.88338C70.1669 8.11672 73.009 7.75005 76.3861 7.61672C76.1186 6.21672 75.7842 5.11671 75.3161 4.31671C74.4802 2.88338 73.5105 2.11672 71.3037 1.45005C69.0969 0.783386 65.7198 0.450053 61.0052 0.450053ZM99.6247 0.450053C94.9101 0.450053 91.533 0.783386 89.3596 1.45005C87.1528 2.11672 86.1831 2.88338 85.3472 4.31671C84.8791 5.11671 84.5447 6.21672 84.2772 7.61672C87.6543 7.75005 90.5299 8.11672 93.0042 8.88338C96.3479 9.88338 99.0897 11.85 100.728 14.65C102.367 11.85 105.075 9.88338 108.452 8.88338C110.391 8.28338 112.565 7.95005 115.039 7.75005C114.772 6.25005 114.404 5.11671 113.936 4.31671C113.1 2.88338 112.13 2.11672 109.923 1.45005C107.716 0.783386 104.339 0.450053 99.6247 0.450053ZM138.244 0.450053C133.53 0.450053 130.153 0.783386 127.979 1.45005C125.772 2.11672 124.803 2.88338 123.967 4.31671C123.499 5.08338 123.164 6.15005 122.897 7.55005C127.277 7.61672 130.788 7.98338 133.764 8.88338C137.107 9.88338 139.849 11.85 141.488 14.65C143.126 11.85 145.834 9.88338 149.212 8.88338C150.582 8.45005 152.087 8.18339 153.692 7.95005C153.425 6.38339 153.057 5.15004 152.555 4.31671C151.719 2.88338 150.75 2.11672 148.543 1.45005C146.336 0.783386 142.959 0.450053 138.244 0.450053ZM39.5721 13.55C34.59 13.55 31.0123 13.8834 28.6717 14.6167C26.3345 15.3167 25.2712 16.1501 24.3651 17.7501C23.5191 19.2167 23.0075 21.6834 22.6932 25.1834C26.2843 25.3167 29.2736 25.6501 31.8482 26.4501C35.1919 27.4501 37.9337 29.4167 39.5721 32.2167C41.2105 29.4167 43.9189 27.4501 47.2961 26.4501C49.8707 25.6501 52.88 25.2834 56.4912 25.1834C56.1568 21.6834 55.6553 19.2167 54.8193 17.7501C53.9165 16.1834 52.8466 15.3167 50.4726 14.6167C48.132 13.8834 44.5542 13.55 39.5721 13.55ZM80.3317 13.55C75.3496 13.55 71.7718 13.8834 69.4312 14.6167C67.0907 15.3167 66.0207 16.1501 65.1179 17.7501C64.282 19.2167 63.7804 21.6834 63.4461 25.1834C67.0572 25.3167 70.0331 25.6501 72.6077 26.4501C75.9514 27.4501 78.6933 29.4167 80.3317 32.2167C81.9701 29.4167 84.6785 27.4501 88.0556 26.4501C90.6302 25.6501 93.6395 25.2834 97.2507 25.1834C96.9163 21.6834 96.4148 19.2167 95.5789 17.7501C94.6761 16.1834 93.6061 15.3167 91.2321 14.6167C88.8915 13.8834 85.3138 13.55 80.3317 13.55ZM121.091 13.55C116.109 13.55 112.531 13.8834 110.191 14.6167C107.85 15.3167 106.78 16.1501 105.877 17.7501C105.041 19.2167 104.54 21.6834 104.206 25.1834C107.817 25.3167 110.793 25.6501 113.367 26.4501C116.711 27.4501 119.453 29.4167 121.091 32.2167C122.73 29.4167 125.438 27.4501 128.815 26.4501C131.39 25.6501 134.399 25.2834 138.01 25.1834C137.676 21.6834 137.174 19.2167 136.338 17.7501C135.436 16.1834 134.366 15.3167 131.992 14.6167C129.651 13.8834 126.073 13.55 121.091 13.55ZM0.751953 13.5834V29.7501C2.30342 28.2501 4.2762 27.1167 6.52984 26.4501C9.12454 25.6501 12.1205 25.2834 15.7216 25.1834C15.4107 21.6834 14.8924 19.2167 14.0498 17.7501C13.1437 16.1834 12.077 15.3167 9.7264 14.6167C7.69679 13.9834 4.73094 13.6501 0.751953 13.5834ZM163.422 13.5833C159.443 13.6499 152.957 13.9834 150.95 14.6167C148.61 15.3167 147.54 16.1501 146.637 17.7501C145.801 19.2167 145.299 21.6834 144.965 25.1834C148.576 25.3167 151.552 25.6501 154.127 26.4501C156.367 27.1167 160.513 28.25 162.085 29.75L163.422 13.5833ZM19.1757 31.1167C14.2136 31.1167 10.6292 31.45 8.28862 32.1834C5.9447 32.8834 4.88475 33.7167 3.97861 35.3167C2.33017 38.1834 1.92224 44.8167 1.86206 55.55H36.5294C36.4625 44.8167 36.0613 38.1834 34.4229 35.3167C33.5201 33.75 32.4501 32.8834 30.0761 32.1834C27.7422 31.45 24.1511 31.1167 19.1757 31.1167ZM59.9352 31.1167C54.9531 31.1167 51.3753 31.45 49.0348 32.1834C46.6942 32.8834 45.6242 33.7167 44.7214 35.3167C43.083 38.1834 42.6818 44.8167 42.6149 55.55H77.2889C77.222 44.8167 76.8208 38.1834 75.1824 35.3167C74.2796 33.75 73.2096 32.8834 70.8356 32.1834C68.495 31.45 64.9173 31.1167 59.9352 31.1167ZM100.695 31.1167C95.7126 31.1167 92.1349 31.45 89.7943 32.1834C87.4537 32.8834 86.3837 33.7167 85.4809 35.3167C83.8425 38.1834 83.4413 44.8167 83.3744 55.55H118.048C117.982 44.8167 117.58 38.1834 115.942 35.3167C115.039 33.75 113.969 32.8834 111.595 32.1834C109.255 31.45 105.677 31.1167 100.695 31.1167ZM141.454 31.1167C136.506 31.1167 132.894 31.45 130.554 32.1834C128.213 32.8834 127.143 33.7167 126.24 35.3167C124.602 38.1834 124.201 44.8167 124.134 55.55H158.808C158.741 44.8167 158.34 38.1834 156.701 35.3167C155.799 33.75 154.729 32.8834 152.355 32.1834C150.014 31.45 146.436 31.1167 141.454 31.1167Z" fill="#F8F8F8"/>
<path d="M185.049 0.449951C180.351 0.449951 176.968 0.783285 174.774 1.44995C172.577 2.11662 171.618 2.88328 170.785 4.31661C170.297 5.14994 169.929 6.38328 169.645 7.94995C171.277 8.18328 172.775 8.44995 174.152 8.88328C177.496 9.88328 180.228 11.8833 181.876 14.6499C183.524 11.8833 186.25 9.88328 189.593 8.88328C192.579 7.98328 196.09 7.61661 200.437 7.54995C200.169 6.14995 199.835 5.08328 199.367 4.31661C198.531 2.88328 197.561 2.11662 195.354 1.44995C193.148 0.783285 189.757 0.449951 185.049 0.449951ZM223.675 0.449951C218.961 0.449951 215.584 0.783285 213.41 1.44995C211.204 2.11662 210.234 2.88328 209.398 4.31661C208.93 5.11661 208.562 6.24995 208.294 7.74995C210.802 7.94995 212.976 8.28328 214.915 8.88328C218.259 9.88328 221 11.8499 222.639 14.6499C224.277 11.8499 226.986 9.88328 230.363 8.88328C232.837 8.11661 235.679 7.74995 239.056 7.61662C238.789 6.21662 238.455 5.11661 237.986 4.31661C237.15 2.88328 236.181 2.11662 233.974 1.44995C231.767 0.783285 228.39 0.449951 223.675 0.449951ZM262.295 0.449951C257.58 0.449951 254.203 0.783285 252.03 1.44995C249.823 2.11662 248.853 2.88328 248.017 4.31661C247.549 5.11661 247.215 6.21662 246.947 7.61662C250.325 7.74995 253.2 8.11661 255.675 8.88328C259.018 9.88328 261.76 11.8499 263.398 14.6499C265.037 11.8499 267.745 9.88328 271.122 8.88328C273.062 8.28328 275.235 7.94995 277.709 7.74995C277.442 6.24995 277.074 5.11661 276.606 4.31661C275.77 2.88328 274.8 2.11662 272.594 1.44995C270.387 0.783285 267.01 0.449951 262.295 0.449951ZM300.915 0.449951C296.2 0.449951 292.823 0.783285 290.649 1.44995C288.443 2.11662 287.473 2.88328 286.637 4.31661C286.169 5.08328 285.835 6.14995 285.567 7.54995C289.947 7.61661 293.458 7.98328 296.434 8.88328C299.778 9.88328 302.52 11.8499 304.158 14.6499C305.796 11.8499 308.505 9.88328 311.882 8.88328C313.253 8.44995 314.757 8.18328 316.362 7.94995C316.095 6.38328 315.727 5.14994 315.226 4.31661C314.39 2.88328 313.42 2.11662 311.213 1.44995C309.006 0.783285 305.629 0.449951 300.915 0.449951ZM202.242 13.5499C197.26 13.5499 193.683 13.8833 191.342 14.6166C189.005 15.3166 187.941 16.1499 187.035 17.75C186.189 19.2166 185.678 21.6833 185.364 25.1833C188.955 25.3166 191.944 25.65 194.519 26.45C197.862 27.45 200.604 29.4166 202.242 32.2166C203.881 29.4166 206.589 27.45 209.966 26.45C212.541 25.65 215.55 25.2833 219.161 25.1833C218.827 21.6833 218.326 19.2166 217.49 17.75C216.587 16.1833 215.517 15.3166 213.143 14.6166C210.802 13.8833 207.225 13.5499 202.242 13.5499ZM243.002 13.5499C238.02 13.5499 234.442 13.8833 232.102 14.6166C229.761 15.3166 228.691 16.1499 227.788 17.75C226.952 19.2166 226.451 21.6833 226.116 25.1833C229.728 25.3166 232.703 25.65 235.278 26.45C238.622 27.45 241.364 29.4166 243.002 32.2166C244.64 29.4166 247.349 27.45 250.726 26.45C253.3 25.65 256.31 25.2833 259.921 25.1833C259.587 21.6833 259.085 19.2166 258.249 17.75C257.346 16.1833 256.276 15.3166 253.902 14.6166C251.562 13.8833 247.984 13.5499 243.002 13.5499ZM283.761 13.5499C278.779 13.5499 275.202 13.8833 272.861 14.6166C270.52 15.3166 269.451 16.1499 268.548 17.75C267.712 19.2166 267.21 21.6833 266.876 25.1833C270.487 25.3166 273.463 25.65 276.038 26.45C279.381 27.45 282.123 29.4166 283.761 32.2166C285.4 29.4166 288.108 27.45 291.485 26.45C294.06 25.65 297.069 25.2833 300.681 25.1833C300.346 21.6833 299.845 19.2166 299.009 17.75C298.106 16.1833 297.036 15.3166 294.662 14.6166C292.321 13.8833 288.744 13.5499 283.761 13.5499ZM163.422 13.5833L162.085 29.75C163.636 28.25 166.947 27.1166 169.2 26.45C171.795 25.65 174.791 25.2833 178.392 25.1833C178.081 21.6833 177.563 19.2166 176.72 17.75C175.814 16.1833 174.747 15.3166 172.397 14.6166C170.367 13.9833 167.401 13.6499 163.422 13.5833ZM322.582 13.5833C318.603 13.6499 315.627 13.9833 313.621 14.6166C311.28 15.3166 310.21 16.1499 309.307 17.75C308.471 19.2166 307.97 21.6833 307.635 25.1833C311.247 25.3166 314.222 25.65 316.797 26.45C319.037 27.1166 321.01 28.25 322.582 29.75V13.5833ZM181.846 31.1166C176.884 31.1166 173.299 31.4499 170.959 32.1833C168.615 32.8833 167.555 33.7166 166.649 35.3166C165 38.1833 164.593 44.8166 164.532 55.5499H199.2C199.133 44.8166 198.732 38.1833 197.093 35.3166C196.19 33.7499 195.12 32.8833 192.746 32.1833C190.412 31.4499 186.821 31.1166 181.846 31.1166ZM222.605 31.1166C217.623 31.1166 214.046 31.4499 211.705 32.1833C209.364 32.8833 208.294 33.7166 207.392 35.3166C205.753 38.1833 205.352 44.8166 205.285 55.5499H239.959C239.892 44.8166 239.491 38.1833 237.853 35.3166C236.95 33.7499 235.88 32.8833 233.506 32.1833C231.165 31.4499 227.588 31.1166 222.605 31.1166ZM263.365 31.1166C258.383 31.1166 254.805 31.4499 252.465 32.1833C250.124 32.8833 249.054 33.7166 248.151 35.3166C246.513 38.1833 246.112 44.8166 246.045 55.5499H280.719C280.652 44.8166 280.251 38.1833 278.612 35.3166C277.709 33.7499 276.639 32.8833 274.265 32.1833C271.925 31.4499 268.347 31.1166 263.365 31.1166ZM304.125 31.1166C299.176 31.1166 295.565 31.4499 293.224 32.1833C290.884 32.8833 289.814 33.7166 288.911 35.3166C287.272 38.1833 286.871 44.8166 286.804 55.5499H321.478C321.411 44.8166 321.01 38.1833 319.372 35.3166C318.469 33.7499 317.399 32.8833 315.025 32.1833C312.684 31.4499 309.107 31.1166 304.125 31.1166Z" fill="#F8F8F8"/>
</svg>
