<svg width="60" height="60" viewBox="0 0 60 60" fill="none" xmlns="http://www.w3.org/2000/svg">
<rect width="60" height="60" rx="30" fill="#457EFF" fill-opacity="0.14"/>
<path d="M39.7251 37.1504C37.6748 37.6427 35.5345 37.6188 33.4957 37.081C31.4569 36.5431 29.5833 35.508 28.0427 34.0684C26.5022 32.6287 25.3427 30.8295 24.6681 28.8318C23.9935 26.8341 23.825 24.7003 24.1774 22.6215C24.1238 22.6732 24.0672 22.7218 24.0079 22.767C23.5879 23.0865 23.0629 23.205 22.0129 23.442L21.0604 23.658C17.3704 24.4934 15.5254 24.9104 15.0859 26.3219C14.6478 27.7319 15.9049 29.2034 18.4204 32.1449L19.0714 32.9054C19.7854 33.7409 20.1439 34.1594 20.3044 34.6754C20.4649 35.1929 20.4109 35.7509 20.3029 36.8654L20.2039 37.8809C19.8244 41.8064 19.6339 43.7683 20.7829 44.6398C21.9319 45.5128 23.6599 44.7178 27.113 43.1263L28.0085 42.7153C28.9895 42.2624 29.48 42.0374 30.0005 42.0374C30.521 42.0374 31.0115 42.2624 31.994 42.7153L32.8865 43.1263C36.341 44.7163 38.0691 45.5113 39.2166 44.6413C40.3671 43.7683 40.1766 41.8064 39.7971 37.8809L39.7251 37.1504Z" fill="#457EFF"/>
<path opacity="0.5" d="M25.73 20.112L25.238 20.994C24.698 21.963 24.428 22.4475 24.008 22.767C24.068 22.722 24.1235 22.674 24.1775 22.6215C23.825 24.7005 23.9935 26.8344 24.6682 28.8323C25.3428 30.8302 26.5024 32.6295 28.0432 34.0692C29.584 35.5088 31.4578 36.5439 33.4968 37.0816C35.5358 37.6194 37.6763 37.643 39.7267 37.1504L39.6967 36.8654C39.5902 35.7509 39.5362 35.1929 39.6967 34.6754C39.8572 34.1594 40.2142 33.7409 40.9297 32.9054L41.5807 32.1449C44.0962 29.2049 45.3532 27.7334 44.9137 26.3219C44.4757 24.9104 42.6307 24.4919 38.9407 23.658L37.9867 23.442C36.9381 23.205 36.4131 23.0865 35.9916 22.767C35.5716 22.4475 35.3016 21.963 34.7616 20.994L34.2711 20.112C32.3706 16.704 31.4211 15 30.0006 15C28.5801 15 27.6306 16.704 25.73 20.112Z" fill="#457EFF"/>
</svg>
