<svg width="60" height="60" viewBox="0 0 60 60" fill="none" xmlns="http://www.w3.org/2000/svg">
<rect width="60" height="60" rx="30" fill="#457EFF" fill-opacity="0.14"/>
<path d="M30.0001 15C30.0001 15 36.9232 18.1385 36.9232 31.1538C36.9232 34.9846 35.3232 39.7231 34.4616 41.9231H25.5385C24.677 39.7231 23.077 34.9846 23.077 31.1538C23.077 18.1385 30.0001 15 30.0001 15ZM33.077 28.0769C33.077 26.3846 31.6924 25 30.0001 25C28.3078 25 26.9232 26.3846 26.9232 28.0769C26.9232 29.7692 28.3078 31.1538 30.0001 31.1538C31.6924 31.1538 33.077 29.7692 33.077 28.0769ZM23.3693 42.7231C22.6308 40.8308 21.0308 36.3077 20.8001 32.1538L19.0616 33.3077C18.2001 33.8923 17.6924 34.8462 17.6924 35.8769V45L23.3693 42.7231ZM42.3078 45V35.8769C42.3078 34.8462 41.8001 33.8923 40.9385 33.3231L39.2001 32.1692C38.9693 36.3077 37.3539 40.8462 36.6308 42.7385L42.3078 45Z" fill="#457EFF"/>
</svg>
