<svg width="60" height="60" viewBox="0 0 60 60" fill="none" xmlns="http://www.w3.org/2000/svg">
<rect width="60" height="60" rx="30" fill="#457EFF" fill-opacity="0.14"/>
<path d="M18.75 15C17.7554 15 16.8016 15.4515 16.0983 16.2553C15.3951 17.059 15 18.1491 15 19.2857V32.1429C15 33.2795 15.3951 34.3696 16.0983 35.1733C16.8016 35.977 17.7554 36.4286 18.75 36.4286H33.75C34.7446 36.4286 35.6984 35.977 36.4016 35.1733C37.1049 34.3696 37.5 33.2795 37.5 32.1429V19.2857C37.5 18.1491 37.1049 17.059 36.4016 16.2553C35.6984 15.4515 34.7446 15 33.75 15H18.75ZM19.2525 38.5714C19.5816 39.2229 20.055 39.7639 20.6251 40.1401C21.1951 40.5162 21.8418 40.7143 22.5 40.7143H33.75C35.7391 40.7143 37.6468 39.8112 39.0533 38.2038C40.4598 36.5963 41.25 34.4161 41.25 32.1429V23.5714C41.25 22.8191 41.0767 22.0801 40.7476 21.4286C40.4184 20.7771 39.9451 20.2361 39.375 19.86V32.1429C39.375 33.8478 38.7824 35.483 37.7275 36.6885C36.6726 37.8941 35.2418 38.5714 33.75 38.5714H19.2525ZM23.0025 42.8571C23.3316 43.5086 23.805 44.0496 24.3751 44.4258C24.9451 44.8019 25.5918 45 26.25 45H33.75C36.7337 45 39.5952 43.6454 41.705 41.2342C43.8147 38.823 45 35.5528 45 32.1429V27.8571C45 27.1049 44.8267 26.3658 44.4976 25.7143C44.1684 25.0629 43.6951 24.5219 43.125 24.1457V32.1429C43.125 34.9845 42.1373 37.7097 40.3791 39.719C38.621 41.7283 36.2364 42.8571 33.75 42.8571H23.0025Z" fill="#457EFF"/>
</svg>
