<svg width="53" height="112" viewBox="0 0 53 112" fill="none" xmlns="http://www.w3.org/2000/svg">
<path d="M7.09366 4.34651C7.09366 5.25696 6.25283 5.99502 5.21561 5.99502C4.17839 5.99502 3.33756 5.25696 3.33756 4.34651C3.33756 3.43606 4.17839 2.698 5.21561 2.698C6.25283 2.698 7.09366 3.43606 7.09366 4.34651Z" fill="black"/>
<path d="M17.1099 4.34651C17.1099 5.25696 16.2691 5.99502 15.2318 5.99502C14.1946 5.99502 13.3538 5.25696 13.3538 4.34651C13.3538 3.43606 14.1946 2.698 15.2318 2.698C16.2691 2.698 17.1099 3.43606 17.1099 4.34651Z" fill="black"/>
<path d="M29.6302 3.24752C29.6302 4.76493 28.2288 5.99504 26.5001 5.99504C24.7714 5.99504 23.37 4.76493 23.37 3.24752C23.37 1.73011 24.7714 0.5 26.5001 0.5C28.2288 0.5 29.6302 1.73011 29.6302 3.24752Z" fill="black"/>
<path d="M40.8985 3.24752C40.8985 4.76493 39.4971 5.99504 37.7684 5.99504C36.0397 5.99504 34.6383 4.76493 34.6383 3.24752C34.6383 1.73011 36.0397 0.5 37.7684 0.5C39.4971 0.5 40.8985 1.73011 40.8985 3.24752Z" fill="black"/>
<path d="M29.6302 56C29.6302 57.5174 28.2288 58.7475 26.5001 58.7475C24.7714 58.7475 23.37 57.5174 23.37 56C23.37 54.4826 24.7714 53.2524 26.5001 53.2524C28.2288 53.2524 29.6302 54.4826 29.6302 56Z" fill="black"/>
<path d="M40.8985 56C40.8985 57.5174 39.4971 58.7475 37.7684 58.7475C36.0397 58.7475 34.6383 57.5174 34.6383 56C34.6383 54.4826 36.0397 53.2524 37.7684 53.2524C39.4971 53.2524 40.8985 54.4826 40.8985 56Z" fill="black"/>
<path d="M52.1669 56C52.1669 57.5174 50.7655 58.7475 49.0368 58.7475C47.3081 58.7475 45.9067 57.5174 45.9067 56C45.9067 54.4826 47.3081 53.2524 49.0368 53.2524C50.7655 53.2524 52.1669 54.4826 52.1669 56Z" fill="black"/>
<path d="M29.6302 108.752C29.6302 110.27 28.2288 111.5 26.5001 111.5C24.7714 111.5 23.37 110.27 23.37 108.752C23.37 107.235 24.7714 106.005 26.5001 106.005C28.2288 106.005 29.6302 107.235 29.6302 108.752Z" fill="black"/>
<path d="M40.8985 108.752C40.8985 110.27 39.4971 111.5 37.7684 111.5C36.0397 111.5 34.6383 110.27 34.6383 108.752C34.6383 107.235 36.0397 106.005 37.7684 106.005C39.4971 106.005 40.8985 107.235 40.8985 108.752Z" fill="black"/>
<path d="M18.3619 3.24752C18.3619 4.76493 16.9605 5.99502 15.2318 5.99502C13.5032 5.99502 12.1018 4.76493 12.1018 3.24752C12.1018 1.73011 13.5032 0.5 15.2319 0.5C16.9606 0.5 18.3619 1.73011 18.3619 3.24752Z" fill="black"/>
<path d="M18.3619 29.6239C18.3619 31.1413 16.9606 32.3714 15.2319 32.3714C13.5032 32.3714 12.1018 31.1413 12.1018 29.6239C12.1018 28.1065 13.5032 26.8763 15.2319 26.8763C16.9606 26.8763 18.3619 28.1065 18.3619 29.6239Z" fill="black"/>
<path d="M18.3619 56C18.3619 57.5174 16.9606 58.7475 15.2319 58.7475C13.5032 58.7475 12.1018 57.5174 12.1018 56C12.1018 54.4826 13.5032 53.2524 15.2319 53.2524C16.9606 53.2524 18.3619 54.4826 18.3619 56Z" fill="black"/>
<path d="M18.3619 82.3763C18.3619 83.8937 16.9606 85.1238 15.2319 85.1238C13.5032 85.1238 12.1018 83.8937 12.1018 82.3763C12.1018 80.8589 13.5032 79.6288 15.2319 79.6288C16.9606 79.6288 18.3619 80.8589 18.3619 82.3763Z" fill="black"/>
<path d="M18.3619 108.752C18.3619 110.27 16.9606 111.5 15.2319 111.5C13.5032 111.5 12.1018 110.27 12.1018 108.752C12.1018 107.235 13.5032 106.005 15.2319 106.005C16.9606 106.005 18.3619 107.235 18.3619 108.752Z" fill="black"/>
<path d="M7.09367 3.24752C7.09367 4.76493 5.69228 5.99504 3.96358 5.99504C2.23488 5.99504 0.833496 4.76493 0.833496 3.24752C0.833496 1.73011 2.23488 0.5 3.96358 0.5C5.69228 0.5 7.09367 1.73011 7.09367 3.24752Z" fill="black"/>
<path d="M7.09367 29.6238C7.09367 31.1412 5.69228 32.3713 3.96358 32.3713C2.23488 32.3713 0.833496 31.1412 0.833496 29.6238C0.833496 28.1064 2.23488 26.8763 3.96358 26.8763C5.69228 26.8763 7.09367 28.1064 7.09367 29.6238Z" fill="black"/>
<path d="M7.09367 56C7.09367 57.5174 5.69228 58.7475 3.96358 58.7475C2.23488 58.7475 0.833496 57.5174 0.833496 56C0.833496 54.4826 2.23488 53.2525 3.96358 53.2525C5.69228 53.2525 7.09367 54.4826 7.09367 56Z" fill="black"/>
<path d="M7.09367 82.3763C7.09367 83.8937 5.69228 85.1238 3.96358 85.1238C2.23488 85.1238 0.833496 83.8937 0.833496 82.3763C0.833496 80.8588 2.23488 79.6287 3.96358 79.6287C5.69228 79.6287 7.09367 80.8588 7.09367 82.3763Z" fill="black"/>
<path d="M7.09367 108.752C7.09367 110.27 5.69228 111.5 3.96358 111.5C2.23488 111.5 0.833496 110.27 0.833496 108.752C0.833496 107.235 2.23488 106.005 3.96358 106.005C5.69228 106.005 7.09367 107.235 7.09367 108.752Z" fill="black"/>
<path d="M39.6466 4.34651C39.6466 5.25696 38.8056 5.99504 37.7684 5.99504C36.7312 5.99504 35.8905 5.25696 35.8905 4.34651C35.8905 3.43606 36.7313 2.698 37.7685 2.698C38.8058 2.698 39.6466 3.43606 39.6466 4.34651Z" fill="black"/>
<path d="M39.6466 30.7227C39.6466 31.6332 38.8058 32.3712 37.7685 32.3712C36.7313 32.3712 35.8905 31.6332 35.8905 30.7227C35.8905 29.8123 36.7313 29.0742 37.7685 29.0742C38.8058 29.0742 39.6466 29.8123 39.6466 30.7227Z" fill="black"/>
<path d="M28.3782 30.7227C28.3782 31.6332 27.5373 32.3712 26.5001 32.3712C25.4629 32.3712 24.6221 31.6332 24.6221 30.7227C24.6221 29.8123 25.4629 29.0742 26.5001 29.0742C27.5373 29.0742 28.3782 29.8123 28.3782 30.7227Z" fill="black"/>
<path d="M39.6466 57.099C39.6466 58.0094 38.8056 58.7475 37.7684 58.7475C36.7312 58.7475 35.8905 58.0094 35.8905 57.099C35.8905 56.1885 36.7313 55.4504 37.7685 55.4504C38.8058 55.4504 39.6466 56.1885 39.6466 57.099Z" fill="black"/>
<path d="M39.6466 83.4752C39.6466 84.3856 38.8058 85.1237 37.7685 85.1237C36.7313 85.1237 35.8905 84.3856 35.8905 83.4752C35.8905 82.5647 36.7313 81.8267 37.7685 81.8267C38.8058 81.8267 39.6466 82.5647 39.6466 83.4752Z" fill="black"/>
<path d="M28.3782 83.4752C28.3782 84.3856 27.5373 85.1237 26.5001 85.1237C25.4629 85.1237 24.6221 84.3856 24.6221 83.4752C24.6221 82.5647 25.4629 81.8267 26.5001 81.8267C27.5373 81.8267 28.3782 82.5647 28.3782 83.4752Z" fill="black"/>
<path d="M39.6466 109.851C39.6466 110.762 38.8056 111.5 37.7684 111.5C36.7312 111.5 35.8905 110.762 35.8905 109.851C35.8905 108.941 36.7313 108.203 37.7685 108.203C38.8058 108.203 39.6466 108.941 39.6466 109.851Z" fill="black"/>
<path d="M49.6628 4.34651C49.6628 5.25696 48.822 5.99502 47.7848 5.99502C46.7476 5.99502 45.9067 5.25696 45.9067 4.34651C45.9067 3.43606 46.7476 2.698 47.7848 2.698C48.822 2.698 49.6628 3.43606 49.6628 4.34651Z" fill="black"/>
<path d="M49.6628 30.7227C49.6628 31.6332 48.822 32.3712 47.7848 32.3712C46.7476 32.3712 45.9067 31.6332 45.9067 30.7227C45.9067 29.8123 46.7476 29.0742 47.7848 29.0742C48.822 29.0742 49.6628 29.8123 49.6628 30.7227Z" fill="black"/>
<path d="M49.6628 83.4752C49.6628 84.3856 48.822 85.1237 47.7848 85.1237C46.7476 85.1237 45.9067 84.3856 45.9067 83.4752C45.9067 82.5647 46.7476 81.8267 47.7848 81.8267C48.822 81.8267 49.6628 82.5647 49.6628 83.4752Z" fill="black"/>
<path d="M49.6628 109.851C49.6628 110.762 48.822 111.5 47.7848 111.5C46.7476 111.5 45.9067 110.762 45.9067 109.851C45.9067 108.941 46.7476 108.203 47.7848 108.203C48.822 108.203 49.6628 108.941 49.6628 109.851Z" fill="black"/>
</svg>
