<svg width="28" height="23" viewBox="0 0 28 23" fill="none" xmlns="http://www.w3.org/2000/svg">
<path d="M11.2398 0.339735L-5.05158e-07 11.4433L11.2398 22.5469C11.3413 22.6779 11.4702 22.786 11.6179 22.8637C11.7656 22.9415 11.9286 22.9872 12.0958 22.9977C12.263 23.0082 12.4306 22.9832 12.5871 22.9245C12.7437 22.8658 12.8856 22.7748 13.0032 22.6575C13.1208 22.5402 13.2114 22.3995 13.2689 22.2448C13.3264 22.0902 13.3494 21.9252 13.3363 21.761C13.3233 21.5968 13.2745 21.4373 13.1932 21.2933C13.112 21.1493 13.0002 21.0241 12.8655 20.9262L4.45614 12.5928L26.8304 12.5928C27.1406 12.5928 27.4381 12.4717 27.6574 12.2561C27.8768 12.0406 28 11.7482 28 11.4433C28 11.1385 27.8768 10.8461 27.6574 10.6306C27.4381 10.415 27.1406 10.2939 26.8304 10.2939L4.45614 10.2939L12.8655 1.96045C13.0842 1.744 13.2064 1.45105 13.2053 1.14603C13.2042 0.841005 13.0799 0.548906 12.8596 0.333986C12.6394 0.119066 12.3413 -0.00106865 12.031 9.01085e-06C11.7206 0.00108668 11.4234 0.123291 11.2047 0.339735L11.2398 0.339735Z" fill="#F8F8F8" fill-opacity="0.8"/>
</svg>
